<?xml version="1.0" encoding="UTF-8" standalone="no"?>
<!-- Created with Inkscape (http://www.inkscape.org/) -->

<svg
   xmlns:dc="http://purl.org/dc/elements/1.1/"
   xmlns:cc="http://creativecommons.org/ns#"
   xmlns:rdf="http://www.w3.org/1999/02/22-rdf-syntax-ns#"
   xmlns:svg="http://www.w3.org/2000/svg"
   xmlns="http://www.w3.org/2000/svg"
   xmlns:sodipodi="http://sodipodi.sourceforge.net/DTD/sodipodi-0.dtd"
   xmlns:inkscape="http://www.inkscape.org/namespaces/inkscape"
   width="878.1395874023438"
   height="594.134033203125"
   viewBox="0 0 878.1395508131942 594.134033203125"
   id="svg2"
   version="1.1"
   inkscape:version="0.48.5 r10040"
   sodipodi:docname="homeoftheHAT.svg">
  <defs
     id="defs4" />
  <sodipodi:namedview
     id="base"
     pagecolor="#ffffff"
     bordercolor="#666666"
     borderopacity="1.0"
     inkscape:pageopacity="0.0"
     inkscape:pageshadow="2"
     inkscape:zoom="0.3499999999999907"
     inkscape:cx="889.5077475655264"
     inkscape:cy="151.9968483748133"
     inkscape:document-units="px"
     inkscape:current-layer="layer1"
     showgrid="false"
     inkscape:window-width="1280"
     inkscape:window-height="660"
     inkscape:window-x="-8"
     inkscape:window-y="-8"
     inkscape:window-maximized="1"
     fit-margin-top="0"
     fit-margin-left="0"
     fit-margin-right="0"
     fit-margin-bottom="0"
     showguides="true"
     inkscape:guide-bbox="true" />
  <metadata
     id="metadata7">
    <rdf:RDF>
      <cc:Work
         rdf:about="">
        <dc:format>image/svg+xml</dc:format>
        <dc:type
           rdf:resource="http://purl.org/dc/dcmitype/StillImage" />
        <dc:title></dc:title>
      </cc:Work>
    </rdf:RDF>
  </metadata>
  <g
     inkscape:label="Layer 1"
     inkscape:groupmode="layer"
     id="layer1"
     transform="translate(-552.9630434455284,-81.36588794097042)">
    <g
       id="g4245"
       transform="matrix(1.9567516,0,0,1.9567516,-1110.8574,124.51386)"
       style="fill:#ffffff;fill-opacity:1">
      <text
         sodipodi:linespacing="125%"
         id="text4241"
         y="36.874123"
         x="843.14996"
         style="font-size:79.41468811039999300px;font-style:normal;font-weight:normal;line-height:125%;letter-spacing:0px;word-spacing:0px;fill:#ffffff;fill-opacity:1;stroke:none;font-family:sans-serif"
         xml:space="preserve"><tspan
           style="font-style:normal;font-variant:normal;font-weight:200;font-stretch:normal;letter-spacing:3.30999994280000020px;font-family:Montserrat;-inkscape-font-specification:Montserrat Ultra-Light;fill:#ffffff;fill-opacity:1"
           y="36.874123"
           x="843.14996"
           id="tspan4243"
           sodipodi:role="line"
           dx="0 0 0 0 0 0 0 2.0649581">home<tspan
   style="font-size:36.79567718510000400px;fill:#ffffff;fill-opacity:1"
   id="tspan4521"
   dx="13.568981 0 1.032479">of </tspan>the</tspan></text>
    </g>
    <g
       id="g4706"
       transform="translate(539.6308955040027,-455.042052956057)"
       style="fill:#ffffff;fill-opacity:1">
      <path
         style="font-size:624.82354736330001000px;font-style:normal;font-variant:normal;font-weight:normal;font-stretch:normal;line-height:125%;letter-spacing:0px;word-spacing:0px;fill:#ffffff;fill-opacity:1;stroke:none;font-family:Montserrat;-inkscape-font-specification:Montserrat"
         clip-path="none"
         d="m 1386.78125,344.1875 0,437.375 73.75,0 0,-181.1875 231.78125,0 0,181.1875 73.75,0 5.59375,0 134.96875,-355.53125 136.21875,355.53125 7.25,0 69.59375,0 4.125,0 0,-371.125 138.71875,0 0,-66.25 -395.90625,0 -100.5625,252.3125 0,-252.3125 -73.75,0 0,189.9375 -231.78125,0 0,-189.9375 z m 582.875,66.25 80.4375,0 0,198.96875 z"
         transform="translate(-1371.059535504003,320.975692956057)"
         id="text3966-6-0"
         inkscape:connector-curvature="0"
         sodipodi:nodetypes="cccccccccccccccccccccccccccc" />
      <path
         style="fill:#ffffff;fill-opacity:1;stroke:none"
         d="m 459.4790681692716,997.381710448039 c 0.00569856793,0.5663575117377 0.078329181002,1.1251046703105 0.2154242763425,1.6795595422153 -0.010086230937,0.020396976706 -0.013028056565,0.042267682656 -0.00913352671,0.062077618877 2.4591588948287,12.5087706699027 10.6400147555682,16.3296677567507 11.5219843401759,73.9987096337127 4.8870078313528,7.763399324185 -7.9033996790541,23.708297308118 107.9914547789586,25.686887814234 12.5111917902536,-0.88160655642 19.6881643649252,-10.346955519728 21.451105206625,-19.192959504252 -2.8765730069256,-9.928517887816 -5.8617089871135,-56.648636969331 -0.016115757925,-79.444119247571 0.2896704977077,-1.4545154214438 0.9064666529737,-2.8636086556389 0.9046574941515,-4.2203500459512 -0.1242172080606,-12.3454435858969 -32.0267890345691,-22.0345882911454 -71.2553009498098,-21.6398794098824 -17.8698934855022,1.8547977920032 -69.3485613629069,5.316827976691 -70.8040758618051,23.0700735986161 z m 9.9801287600767,76.326460834674 c -45.9348129861273,6.641474892373 -29.8737364282711,18.682347954227 -15.3562263894248,23.046539060818 17.3363261259238,5.211571412542 83.0470171570975,29.536548595178 103.2443571589809,32.969620035052 20.1973400018835,3.433071439876 53.3684366744369,-4.067680227828 70.7509864080281,-20.182367842225 10.9934807356766,-28.649979645201 -14.8433627219921,-25.366549548786 -24.5568188063395,-30.385238746758 0.2269825759422,16.959885185144 1.0884578675955,12.491687679106 2.691384099668,18.024202143248 -1.8462685620282,9.2641220113 -9.3622558852733,19.176158284781 -22.4648056302706,20.099435135991 -19.2455326331052,-0.328565304571 -35.1031500118279,-1.157042353887 -48.1911388193006,-2.351285923228 -21.5031763937377,-10.034040566746 -42.6645979850683,-16.353296430852 -62.5850017412582,-22.336080278284 -2.9738964418857,-6.675113404804 -3.2709197137493,-12.162865767646 -3.5327362800839,-18.884823584614 z"
         id="path3844-7"
         inkscape:connector-curvature="0"
         sodipodi:nodetypes="ccsccccccccssccccccc" />
    </g>
  </g>
</svg>
