<?xml version="1.0" encoding="UTF-8" standalone="no"?>
<!-- Created with Inkscape (http://www.inkscape.org/) -->

<svg
   xmlns:dc="http://purl.org/dc/elements/1.1/"
   xmlns:cc="http://creativecommons.org/ns#"
   xmlns:rdf="http://www.w3.org/1999/02/22-rdf-syntax-ns#"
   xmlns:svg="http://www.w3.org/2000/svg"
   xmlns="http://www.w3.org/2000/svg"
   xmlns:sodipodi="http://sodipodi.sourceforge.net/DTD/sodipodi-0.dtd"
   xmlns:inkscape="http://www.inkscape.org/namespaces/inkscape"
   width="677.33331mm"
   height="381mm"
   viewBox="0 0 2399.9999 1350"
   id="svg2"
   version="1.1"
   inkscape:version="0.48.5 r10040"
   sodipodi:docname="homeoftheHAT_text.svg">
  <defs
     id="defs4" />
  <sodipodi:namedview
     id="base"
     pagecolor="#ffffff"
     bordercolor="#666666"
     borderopacity="1.0"
     inkscape:pageopacity="0.0"
     inkscape:pageshadow="2"
     inkscape:zoom="0.4949747466999869"
     inkscape:cx="1463.479046206302"
     inkscape:cy="881.5128498838767"
     inkscape:document-units="px"
     inkscape:current-layer="text4241"
     showgrid="false"
     inkscape:window-width="1280"
     inkscape:window-height="660"
     inkscape:window-x="-8"
     inkscape:window-y="-8"
     inkscape:window-maximized="1"
     fit-margin-top="0"
     fit-margin-left="0"
     fit-margin-right="0"
     fit-margin-bottom="0"
     showguides="true"
     inkscape:guide-bbox="true" />
  <metadata
     id="metadata7">
    <rdf:RDF>
      <cc:Work
         rdf:about="">
        <dc:format>image/svg+xml</dc:format>
        <dc:type
           rdf:resource="http://purl.org/dc/dcmitype/StillImage" />
        <dc:title />
      </cc:Work>
    </rdf:RDF>
  </metadata>
  <g
     inkscape:groupmode="layer"
     id="layer3"
     inkscape:label="Layer#1"
     sodipodi:insensitive="true"
     style="display:none">
    <g
       style="display:inline"
       id="g4706"
       transform="translate(1371.059485504003,-320.975692956057)">
      <path
         style="font-size:624.8235473633px;font-style:normal;font-variant:normal;font-weight:normal;font-stretch:normal;line-height:125%;letter-spacing:0px;word-spacing:0px;fill:#000000;fill-opacity:1;stroke:none;font-family:Montserrat;-inkscape-font-specification:Montserrat"
         clip-path="none"
         d="m 1386.78125,344.1875 0,437.375 73.75,0 0,-181.1875 231.78125,0 0,181.1875 73.75,0 5.59375,0 134.96875,-355.53125 136.21875,355.53125 7.25,0 69.59375,0 4.125,0 0,-371.125 138.71875,0 0,-66.25 -395.90625,0 -100.5625,252.3125 0,-252.3125 -73.75,0 0,189.9375 -231.78125,0 0,-189.9375 z m 582.875,66.25 80.4375,0 0,198.96875 z"
         transform="translate(-1371.059535504003,320.975692956057)"
         id="text3966-6-0"
         inkscape:connector-curvature="0"
         sodipodi:nodetypes="cccccccccccccccccccccccccccc" />
      <path
         style="fill:#000000;fill-opacity:1;stroke:none"
         d="m 459.4790681692716,997.381710448039 c 0.00569856793,0.5663575117377 0.078329181002,1.1251046703105 0.2154242763425,1.6795595422153 -0.010086230937,0.020396976706 -0.013028056565,0.042267682656 -0.00913352671,0.062077618877 2.4591588948287,12.5087706699027 10.6400147555682,16.3296677567507 11.5219843401759,73.9987096337127 4.8870078313528,7.763399324185 -7.9033996790541,23.708297308118 107.9914547789586,25.686887814234 12.5111917902536,-0.88160655642 19.6881643649252,-10.346955519728 21.451105206625,-19.192959504252 -2.8765730069256,-9.928517887816 -5.8617089871135,-56.648636969331 -0.016115757925,-79.444119247571 0.2896704977077,-1.4545154214438 0.9064666529737,-2.8636086556389 0.9046574941515,-4.2203500459512 -0.1242172080606,-12.3454435858969 -32.0267890345691,-22.0345882911454 -71.2553009498098,-21.6398794098824 -17.8698934855022,1.8547977920032 -69.3485613629069,5.316827976691 -70.8040758618051,23.0700735986161 z m 9.9801287600767,76.326460834674 c -45.9348129861273,6.641474892373 -29.8737364282711,18.682347954227 -15.3562263894248,23.046539060818 17.3363261259238,5.211571412542 83.0470171570975,29.536548595178 103.2443571589809,32.969620035052 20.1973400018835,3.433071439876 53.3684366744369,-4.067680227828 70.7509864080281,-20.182367842225 10.9934807356766,-28.649979645201 -14.8433627219921,-25.366549548786 -24.5568188063395,-30.385238746758 0.2269825759422,16.959885185144 1.0884578675955,12.491687679106 2.691384099668,18.024202143248 -1.8462685620282,9.2641220113 -9.3622558852733,19.176158284781 -22.4648056302706,20.099435135991 -19.2455326331052,-0.328565304571 -35.1031500118279,-1.157042353887 -48.1911388193006,-2.351285923228 -21.5031763937377,-10.034040566746 -42.6645979850683,-16.353296430852 -62.5850017412582,-22.336080278284 -2.9738964418857,-6.675113404804 -3.2709197137493,-12.162865767646 -3.5327362800839,-18.884823584614 z"
         id="path3844-7"
         inkscape:connector-curvature="0"
         sodipodi:nodetypes="ccsccccccccssccccccc" />
    </g>
  </g>
  <g
     inkscape:label="Layer 1"
     inkscape:groupmode="layer"
     id="layer1"
     transform="translate(831.4285899999996,134.06636)"
     style="display:inline">
    <g
       id="g4245"
       transform="matrix(1.9567516,0,0,1.9567516,-1110.8574,124.51386)">
      <g
         style="font-size:80.8717880249px;font-style:normal;font-weight:normal;line-height:125%;letter-spacing:0px;word-spacing:0px;fill:#000000;fill-opacity:1;stroke:none;font-family:sans-serif"
         id="text4241">
        <path
           d="m 800.2630618517537,-5.348467682370938 c -4.2592195319294,0.0876517009612 -7.8512253467676,1.064838512974208 -10.7760282205429,2.931563367602394 -2.9248403573641,1.8668034205611455 -5.1016087144797,4.582710354144713 -6.5303116016584,8.147728948479652 l 0,-28.870856619279489 -3.3965713669739,0 0,60.00609414987503 3.3965713669739,0 0,-20.6220404423425 c 0.035369006146,-5.55478394918699 1.4809327627577,-9.931908945225604 4.3366956065297,-13.131388119503974 2.8557297474155,-3.19941166742124094 6.9093712762181,-4.887586618530284 12.1609367473443,-5.064529917857044 4.3585629238562,0.03205062535274 7.7315434158396,1.2417412045475799 10.1189515949019,3.62907536665989 2.3873305229286,2.387404539878542 3.5970211021234,5.760385031861937 3.6290753666599,10.118951594901769 l 0,25.06993151814186 3.3965713669739,0 0,-25.71689749280358 c -0.038796481577,-5.18075182340878 -1.4776206143308,-9.214176890803148 -4.3164767147379,-12.1002873024704076 -2.8389391748806,-2.8860347772976652 -6.8454065502328,-4.3518149953171834 -12.0194141454706,-4.3973450514035903 z"
           style="font-variant:normal;font-weight:200;font-stretch:normal;letter-spacing:3.3707315922px;font-family:Montserrat Ultra Light;-inkscape-font-specification:Montserrat Ultra Light"
           id="path3144" />
        <path
           d="m 851.695706262982,-5.348467682370938 c -6.1023897320835,0.111239179380495 -11.0624572444176,2.092570093754621 -14.8802174172196,5.9439986871210521 -3.8177797435229,3.8515011344287533 -5.7856326152641,8.9059181587459228 -5.9035645187884,15.1632662362177352 0.1179335103008,6.33152053071779 2.085786382042,11.41963326415833 5.9035645187884,15.26435346467508 3.8177585660256,3.84473188633968 8.7778260783596,5.81932398024441 14.8802174172196,5.92378220549643 6.1377200117804,-0.10445822525202 11.1078957548187,-2.07905072085087 14.9105421396567,-5.92378341057998 3.8025672325982,-3.84472100390377 5.7603118736353,-8.9328333356502 5.8732397963513,-15.26435225959153 -0.112927922716,-6.257346470695355 -2.0706721620591,-11.31176349501252 -5.8732385912679,-15.1632662362177352 -3.802645581451,-3.8514302001428921 -8.7728217261832,-5.8327611145170115 -14.9105433447402,-5.9439986871210521 z m 0,3.234829873308627 c 5.1858061866923,0.08596456440221 9.3708627485302,1.7539222507148726 12.5551822406957,5.003878062816057 3.1842450506455,3.250023763745004 4.8218764380695,7.566495358618035 4.9128990751709,12.949427734046825 -0.091021030325,5.38297442821714 -1.728652016055,9.69944602309017 -4.9128978700875,12.94942773404682 -3.1843202955549,3.24999786488954 -7.3693772590868,4.91795555120221 -12.5551834457791,5.00387806281606 -5.1504759069953,-0.0859209048374 -9.325424238129,-1.75387818945595 -12.5248575182586,-5.00387685773251 -3.1994575615699,-3.24998251434609 -4.847197179698,-7.56645451091323 -4.9432237976079,-12.94942893913037 0.09602661791,-5.38293237542879 1.7437666377321,-9.699404371995932 4.9432250026915,-12.949428939130374 3.1994340835165,-3.2499566154882071 7.3743820129561,-4.917913900106756 12.524856313175,-5.003876857732508 z"
           style="font-variant:normal;font-weight:200;font-stretch:normal;letter-spacing:3.3707315922px;font-family:Montserrat Ultra Light;-inkscape-font-specification:Montserrat Ultra Light"
           id="path3146" />
        <path
           d="m 941.1438736109303,-5.348467682370938 c -4.3418060435655,0.08933720946677 -7.97087778115,1.164243345391667 -10.8872260999797,3.224721632496312 -2.9164494679128,2.06055626672107505 -5.0291950136279,5.056140317548615 -6.3382429753889,8.986761139243753 -0.7531532168809,-3.86996822391778 -2.4615466378689,-6.865552676439433454 -5.1251853881487,-8.986762344327303 -2.6637169725061,-2.121131688269029 -6.1310461730843,-3.196037422499811 -10.4019980037327,-3.224720427412763 -4.1800319589889,0.08596619245563 -7.708014962427,1.066522816397442 -10.5839595942733,2.941672813498258 -2.8759808821575,1.8752285428148891 -5.0089444960573,4.614722553123642 -6.398897240597,8.218490249416504 l 0,-11.079292316082048 -3.3157006201412,0 0,42.133659099844862 3.3157006201412,0 0,-20.6220404423425 c 0.038740508382,-5.55478394918699 1.4573473763393,-9.931908945225604 4.255824859697,-13.131388119503974 2.7984455191917,-3.19941166742124094 6.7442594933782,-4.887586618530284 11.8374537600134,-5.064529917857044 4.2423119298435,0.03205062535274 7.5445303882632,1.2417412045475799 9.9066652819242,3.62907536665989 2.3620594412566,2.387404539878542 3.5616413880532,5.760385031861937 3.5987494391394,10.118951594901769 l 0,25.06993151814186 3.3157006201413,0 0,-20.6220404423425 c 0.035336576977,-5.55478394918699 1.440464598913,-9.931908945225604 4.2153882811971,-13.131388119503974 2.7748259702031,-3.19941166742124094 6.7071619017566,-4.887586618530284 11.7970195916805,-5.064529917857044 4.2776603139492,0.03205062535274 7.5899878064613,1.2417412045475799 9.9369924145283,3.62907536665989 2.3468634279619,2.387404539878542 3.5363363406661,5.760385031861937 3.5684223065352,10.118951594901769 l 0,25.06993151814186 3.3157006201415,0 0,-25.71689749280358 c -0.035458691804,-5.18075182340878 -1.4405871154349,-9.214176890803148 -4.2153894862807,-12.1002873024704076 -2.7749488884177,-2.8860347772976652 -6.7072844182773,-4.3518149953171834 -11.797018386597,-4.3973450514035903 z"
           style="font-variant:normal;font-weight:200;font-stretch:normal;letter-spacing:3.3707315922px;font-family:Montserrat Ultra Light;-inkscape-font-specification:Montserrat Ultra Light"
           id="path3148" />
        <path
           d="m 991.9805064370348,-5.348467682370938 c -6.0569000411382,0.109555277651385 -10.9664235880933,2.094256807342538 -14.7285853694501,5.9541105431840151 -3.7621811701173,3.8599262566800867 -5.6997073412758,8.9379295543342038 -5.8125843260597,15.2340251269874933 0.1128785915604,6.2927698219834 2.0504051644128,11.35729507700464 5.8125855311432,15.19359095865468 3.7621609779675,3.83630754725648 8.6716841232284,5.80753023092652 14.7285841643666,5.91367396468412 3.3746415775233,-0.0168471320442 6.4510962943128,-0.60989868243198 9.2293733797421,-1.77915643031975 2.778209780751,-1.1692543513164 5.147046572067,-2.81362455920977 7.106517480466,-4.93311555679566 l -1.940897923985,-2.18351016448332 c -1.72022637985,1.87014236274076 -3.79927701983,3.3055962818716 -6.237158157098,4.30636606375856 -2.4379462988694,1.00077879897765 -5.1033080619916,1.50622086293408 -7.9960932854598,1.51632770819697 -4.9752552464855,-0.0724433447694 -9.0356368008397,-1.64605192079307 -12.1811568442197,-4.72083044890155 -3.1455448504803,-3.07476310201231 -4.8808943567336,-7.21601492063441 -5.2060537248143,-12.42376787963417 l 36.7961898088857,0 c 0.06397801433,-6.61621132262114 -1.620827928243,-11.923348977222405 -5.054422882128,-15.9214288852326717 -3.433672832413,-3.9980077915205747 -8.2724339441097,-6.0501007394584718 -14.5162978513891,-6.1562850000987054 z M 974.835908108499,13.73702857014996 c 0.4767923884298,-4.84210859798046 2.2525776293584,-8.703683701052703 5.327361050147,-11.584736893953618 3.0747582093321,-2.8809837653599368 7.0138333630492,-4.356872615777637 11.8172372783888,-4.427670978924084 4.8572688467162,0.07080157669937 8.7289513771042,1.546691632199407 11.6150592062232,4.427674594174733 2.88603575307,2.88105238950907 4.513558508095,6.742626287498967 4.882573147651,11.584733278702969 z"
           style="font-variant:normal;font-weight:200;font-stretch:normal;letter-spacing:3.3707315922px;font-family:Montserrat Ultra Light;-inkscape-font-specification:Montserrat Ultra Light"
           id="path3150" />
        <g
           id="g3162"
           transform="matrix(0.8619169583406566,0,0,0.8619169583406563,152.3383550764104,5.098199188067156)">
          <path
             id="path3152"
             style="font-size:55.1935157776px;font-family:Montserrat Ultra Light;-inkscape-font-specification:Montserrat Ultra Light"
             d="m 1062.369480629634,8.055417858796772 c -4.164769348924,0.07591870480634 -7.549924681654,1.428140805416472 -10.155476153667,4.056670358500757 -2.605564828671,2.62857906103217 -3.948588411765,6.0781262095663 -4.029074778356,10.34865179425418 0.08048746319,4.32114692704317 1.42351104628,7.79369078059097 4.029074778356,10.41764197828542 2.605550375418,2.62395917305477 5.990705708148,3.97158215198128 10.155476153667,4.04287297965247 4.188881618449,-0.0712908276712 7.580935633704,-1.41891408074658 10.176172221938,-4.04287380209996 2.595182568279,-2.62395174599139 3.931307468847,-6.09649532539031 4.008378710085,-10.41764115583795 -0.07707124124,-4.27052448809234 -1.413195867657,-7.72007163662647 -4.008377887637,-10.34865179425418 -2.595236039937,-2.628530649679821 -5.987290329342,-3.980752750289948 -10.176173044386,-4.056670358500753 z m 0,2.207712207318767 c 3.53921784809,0.0586692424828 6.395442385932,1.19701984810432 8.568682182208,3.41505523191995 2.173188991301,2.21808175956935 3.29084245275,5.16399465321991 3.352963737313,8.83774751869918 -0.06212018797,3.67378156573798 -1.179773375268,6.61969445938853 -3.352962914865,8.83774751869919 -2.173240344575,2.21806408407433 -5.029465156566,3.3564146896959 -8.568683004656,3.41505523191996 -3.515105578565,-0.0586394456285 -6.364431433882,-1.19698977710121 -8.547986113936,-3.4150544094725 -2.183571251694,-2.21805360760923 -3.308123395669,-5.16396677540868 -3.373659805586,-8.83774834114666 0.06553640992,-3.67375286547927 1.190088828041,-6.6196660332787 3.373660628033,-8.83774834114666 2.183555228352,-2.21803593211257 5.03288080952,-3.35638626358526 8.547985291489,-3.41505440947246 z"
             inkscape:connector-curvature="0" />
          <path
             id="path3154"
             style="font-size:55.1935157776px;font-family:Montserrat Ultra Light;-inkscape-font-specification:Montserrat Ultra Light"
             d="m 1097.442004909167,-1.934479879320634 c 0.83592535904,0.0057882509443 1.66151704805,0.159867874259118 2.47677754381,0.462239332183629 0.81522573809,0.302448134529935 1.571826215463,0.7186935944468669 2.269803701926,1.2487376284884137 l 1.048663298476,-1.8765553762209496 c -0.812964253385,-0.640427657466501 -1.725944463213,-1.139462242368672 -2.738943368429,-1.497105251811774 -1.013034821932,-0.357562082991675 -2.050198445089,-0.539238081301526 -3.111493980966,-0.545028539958083 -2.358355402672,0.01153881246332 -4.347594237308,0.844029458148298 -5.967722471632,2.497474434529353 -1.620145992608,1.653521997940688326 -2.4641349908,3.89342776837484 -2.531969526545,6.71972403102649 l 0,3.753110752441893 -3.642725142076,0 0,1.986940986586891 3.642725142076,0 0,26.05100404636141 2.262905012502,0 0,-26.05100404636141 8.886041634458,0 0,-1.986940986586891 -8.886041634458,0 0,-3.918689167990798 c 0.04138677486,-2.075445070101481 0.648507024753,-3.733527130648216 1.821362571038,-4.9742511558913538 1.172834683404,-1.24065016347241963 2.663038933138,-1.86386843585246744 4.47061721982,-1.86965668679681566 z"
             inkscape:connector-curvature="0" />
        </g>
        <path
           d="m 1185.580318802716,31.20510988601654 c -1.100206052808,0.77333110294302 -2.255982854695,1.36975206356549 -3.467333872994,1.78926467113207 -1.211397943549,0.41952035094179 -2.427827343213,0.63180604993901 -3.649291848285,0.63685773384941 -2.190268221552,0.0421216661517 -3.85485649763,-0.66886687463841 -4.993769822004,-2.13296775533821 -1.1389429635,-1.46409014510454 -1.711776445703,-3.69140246759925 -1.718502165111,-6.68194364942781 l 0,-26.121251226967153 14.31412218939,0 0,-2.911346885977765 -14.31412218939,0 0,-10.432326341420321 -3.234829873309,0 0,10.432326341420321 -6.146176759286,0 0,2.911346885977765 6.146176759286,0 0,26.525604961130735 c 0.02357761219,3.96098876901845 0.865980382626,6.91613708517089 2.527210838523,8.86545381391114 1.661205669013,1.94932228860771 3.999715759746,2.90292282728376 7.015537287738,2.86080447683264 1.580328790902,-0.008422803069 3.11013262371,-0.27462187768035 4.58941608784,-0.79859802243129 1.479235467339,-0.52397470929641 2.887732497816,-1.25518051488293 4.225495316926,-2.19361961037919 z"
           style="font-variant:normal;font-weight:200;font-stretch:normal;letter-spacing:3.3707315922px;font-family:Montserrat Ultra Light;-inkscape-font-specification:Montserrat Ultra Light"
           id="path3156" />
        <path
           d="m 1221.549927086129,-5.348467682370938 c -4.25921953193,0.0876517009612 -7.851225346768,1.064838512974208 -10.776028220543,2.931563367602394 -2.924840357364,1.8668034205611455 -5.10160871448,4.582710354144713 -6.530311601658,8.147728948479652 l 0,-28.870856619279489 -3.396571366975,0 0,60.00609414987503 3.396571366975,0 0,-20.6220404423425 c 0.03536900615,-5.55478394918699 1.480932762757,-9.931908945225604 4.336695606529,-13.131388119503974 2.855729747416,-3.19941166742124094 6.909371276218,-4.887586618530284 12.160936747345,-5.064529917857044 4.358562923856,0.03205062535274 7.731543415839,1.2417412045475799 10.118951594901,3.62907536665989 2.387330522929,2.387404539878542 3.597021102124,5.760385031861937 3.62907536666,10.118951594901769 l 0,25.06993151814186 3.396571366974,0 0,-25.71689749280358 c -0.03879648158,-5.18075182340878 -1.477620614331,-9.214176890803148 -4.316476714738,-12.1002873024704076 -2.83893917488,-2.8860347772976652 -6.845406550233,-4.3518149953171834 -12.01941414547,-4.3973450514035903 z"
           style="font-variant:normal;font-weight:200;font-stretch:normal;letter-spacing:3.3707315922px;font-family:Montserrat Ultra Light;-inkscape-font-specification:Montserrat Ultra Light"
           id="path3158" />
        <path
           d="m 1272.739951627464,-5.348467682370938 c -6.056900041138,0.109555277651385 -10.966423588093,2.094256807342538 -14.72858536945,5.9541105431840151 -3.762181170117,3.8599262566800867 -5.699707341275,8.9379295543342038 -5.812584326059,15.2340251269874933 0.11287859156,6.2927698219834 2.050405164413,11.35729507700464 5.812585531143,15.19359095865468 3.762160977967,3.83630754725648 8.671684123228,5.80753023092652 14.728584164366,5.91367396468412 3.374641577524,-0.0168471320442 6.451096294313,-0.60989868243198 9.229373379742,-1.77915643031975 2.778209780751,-1.1692543513164 5.147046572068,-2.81362455920977 7.106517480467,-4.93311555679566 l -1.940897923985,-2.18351016448332 c -1.72022637985,1.87014236274076 -3.79927701983,3.3055962818716 -6.237158157099,4.30636606375856 -2.437946298869,1.00077879897765 -5.103308061991,1.50622086293408 -7.996093285459,1.51632770819697 -4.975255246486,-0.0724433447694 -9.03563680084,-1.64605192079307 -12.18115684422,-4.72083044890155 -3.14554485048,-3.07476310201231 -4.880894356734,-7.21601492063441 -5.206053724814,-12.42376787963417 l 36.796189808886,0 c 0.06397801433,-6.61621132262114 -1.620827928243,-11.923348977222405 -5.054422882129,-15.9214288852326717 -3.433672832412,-3.9980077915205747 -8.272433944109,-6.0501007394584718 -14.516297851389,-6.1562850000987054 z m -17.144598328535,19.085496252520897 c 0.476792388429,-4.84210859798046 2.252577629358,-8.703683701052703 5.327361050147,-11.584736893953618 3.074758209332,-2.8809837653599368 7.013833363049,-4.356872615777637 11.817237278388,-4.427670978924084 4.857268846717,0.07080157669937 8.728951377105,1.546691632199407 11.615059206224,4.427674594174733 2.886035753069,2.88105238950907 4.513558508095,6.742626287498967 4.88257314765,11.584733278702969 z"
           style="font-variant:normal;font-weight:200;font-stretch:normal;letter-spacing:3.3707315922px;font-family:Montserrat Ultra Light;-inkscape-font-specification:Montserrat Ultra Light"
           id="path3160" />
      </g>
    </g>
  </g>
  <g
     inkscape:groupmode="layer"
     id="layer2"
     inkscape:label="Layer"
     style="display:inline">
    <path
       style="font-size:860.2565917969px;font-style:normal;font-variant:normal;font-weight:normal;font-stretch:normal;line-height:125%;letter-spacing:0px;word-spacing:0px;fill:#000000;fill-opacity:1;stroke:none;font-family:Montserrat;-inkscape-font-specification:Montserrat"
       d="m 1784.84375,342.78125 -160,338.9375 76.5625,0 127.3125,-277.875 126.46875,277.875 76.5625,0 -160,-338.9375 z m -549.375,1.03125 0,434.03125 73.1875,0 0,-179.8125 230.03125,0 0,179.8125 586.1875,0 0,-368.3125 137.65625,0 0,-65.71875 -269.051851504138,0 0,65.71875 58.239351504138,0 0,308.09375 -439.875,0 0,-373.8125 -73.15625,0 0,188.5 -230.03125,0 0,-188.5 z"
       transform="translate(-5.000000010113581e-5,0)"
       id="text4715"
       inkscape:connector-curvature="0"
       sodipodi:nodetypes="ccccccccccccccccccccccccccccc" />
  </g>
</svg>
