<?xml version="1.0" encoding="UTF-8" standalone="no"?><svg xmlns:rdf="http://www.w3.org/1999/02/22-rdf-syntax-ns#" xmlns="http://www.w3.org/2000/svg" height="65.91733551" width="65.91733551" version="1.1" xmlns:cc="http://creativecommons.org/ns#" xmlns:dc="http://purl.org/dc/elements/1.1/" viewBox="0 0 65.91733642577243 65.91733668211765"><metadata><rdf:RDF><cc:Work rdf:about=""><dc:format>image/svg+xml</dc:format><dc:type rdf:resource="http://purl.org/dc/dcmitype/StillImage"/><dc:title/></cc:Work></rdf:RDF></metadata><g transform="matrix(1.095851493824209,0,0,1.095851493824209,-8.527133442865496,-1089.453141832568)"><g transform="translate(2.8571429,-2.8042318)"><circle d="m 57.85713958740235,1027.041381835937 c 0,12.623651725676 -10.23349167642446,22.8571434021 -22.85714340209961,22.8571434021 -12.62365172567516,0 -22.85714340209961,-10.233491676424 -22.85714340209961,-22.8571434021 0,-12.623651725675 10.23349167642445,-22.857143402099 22.85714340209959,-22.857143402099 12.62365172567515,0 22.85714340209962,10.233491676424 22.85714340209962,22.857143402099 z" transform="matrix(1.17631673761424,0,0,1.17631673761424,-6.171085143903483,-181.0845858401344)" cy="1027.041382" cx="34.99999619" r="22.8571434" fill="#FFF"/><path fill="#000" d="M32.96875,1.03125c-17.63613891,0-31.9375,14.30136109-31.9375,31.9375s14.30136109,31.9375,31.9375,31.9375,31.9375-14.30136109,31.9375-31.9375-14.30136109-31.9375-31.9375-31.9375zm2.9375,3.40625c2.0411248,0.256811008,6.49322197,8.46875,9.84375,8.46875h-5.09375l1.53125,19.9375c2.80895703-2.33457315,5.43829283-4.50906349,7.46875-6.46875,0.01934441,0.63835962-3.18466158,4.76697838-7.21875,9.78125l0.96875,12.5625c-0.57534987,11.33433776-15.0563756,16.7358076-21.8125,11.0625-0.55019283-7.68710798,7.37345757-15.63880499,15.5-22.625l-1.90625-24.25c-0.76931063-6.559453962-0.35041061-8.603270052,0.71875-8.46875zm1.59375,37.875c-6.02837461,7.41489842-11.98690832,14.66484152-11.59375,15.09375,6.94051699,3.36579526,12.26282257-4.27943253,12.0625-8.90625l-0.46875-6.1875z" transform="matrix(0.9125324219690234,0,0,0.9125324219690234,4.924142577775485,996.9655282642567)"/></g></g></svg>