<?xml version="1.0" encoding="UTF-8" standalone="no"?>
<!-- Created with Inkscape (http://www.inkscape.org/) -->

<svg
   xmlns:dc="http://purl.org/dc/elements/1.1/"
   xmlns:cc="http://creativecommons.org/ns#"
   xmlns:rdf="http://www.w3.org/1999/02/22-rdf-syntax-ns#"
   xmlns:svg="http://www.w3.org/2000/svg"
   xmlns="http://www.w3.org/2000/svg"
   xmlns:sodipodi="http://sodipodi.sourceforge.net/DTD/sodipodi-0.dtd"
   xmlns:inkscape="http://www.inkscape.org/namespaces/inkscape"
   width="194.2857208251953"
   height="194.2857208251953"
   id="svg2"
   version="1.1"
   inkscape:version="0.48.5 r10040"
   sodipodi:docname="windows.svg">
  <defs
     id="defs4">
    <clipPath
       clipPathUnits="userSpaceOnUse"
       id="clipPath3840">
      <path
         style="fill:#789cc7;fill-opacity:1;fill-rule:nonzero;stroke:none"
         d="m 486.9450084394648,449.143529040916 c 0,41.9173725775502 -34.1345034728856,75.898117031826 -76.2415474120773,75.898117031826 -42.1070439391917,0 -76.2415474120773,-33.9807444542758 -76.2415474120773,-75.8981170318262 0,-41.9173725775504 34.1345034728856,-75.8981170318262 76.2415474120773,-75.8981170318262 42.1070439391917,0 76.2415474120774,33.9807444542758 76.2415474120774,75.8981170318262 z"
         id="path3842"
         inkscape:connector-curvature="0" />
    </clipPath>
  </defs>
  <sodipodi:namedview
     id="base"
     pagecolor="#ffffff"
     bordercolor="#666666"
     borderopacity="1.0"
     inkscape:pageopacity="0.0"
     inkscape:pageshadow="2"
     inkscape:zoom="1.979898984710664"
     inkscape:cx="147.3468901831233"
     inkscape:cy="78.98053440483493"
     inkscape:document-units="px"
     inkscape:current-layer="layer1"
     showgrid="false"
     fit-margin-top="0"
     fit-margin-left="0"
     fit-margin-right="0"
     fit-margin-bottom="0"
     inkscape:window-width="1280"
     inkscape:window-height="660"
     inkscape:window-x="-8"
     inkscape:window-y="-8"
     inkscape:window-maximized="1" />
  <metadata
     id="metadata7">
    <rdf:RDF>
      <cc:Work
         rdf:about="">
        <dc:format>image/svg+xml</dc:format>
        <dc:type
           rdf:resource="http://purl.org/dc/dcmitype/StillImage" />
        <dc:title></dc:title>
      </cc:Work>
    </rdf:RDF>
  </metadata>
  <g
     inkscape:label="Layer 1"
     inkscape:groupmode="layer"
     id="layer1"
     transform="translate(-101.4285659790039,-366.6478805436464)">
    <path
       sodipodi:type="arc"
       style="fill:#789cc7;fill-opacity:1;fill-rule:nonzero;stroke:none"
       id="path2989"
       sodipodi:cx="198.5714263916016"
       sodipodi:cy="483.7907409667969"
       sodipodi:rx="97.14286041259766"
       sodipodi:ry="97.14286041259766"
       d="m 295.7142868041992,483.7907409667969 c 0,53.6505203608191 -43.4923400517785,97.1428604125977 -97.1428604125976,97.1428604125977 -53.6505203608192,0 -97.1428604125977,-43.4923400517786 -97.1428604125977,-97.1428604125977 0,-53.6505203608192 43.4923400517785,-97.1428604125977 97.1428604125976,-97.1428604125977 53.6505203608192,0 97.1428604125977,43.4923400517785 97.1428604125977,97.1428604125977 z"
       transform="translate(0,-20.00000001055287)" />
    <g
       id="g3810"
       transform="translate(-212.132034635786,6.647211915328171)"
       clip-path="url(#clipPath3840)">
      <path
         style="fill:#ffffff;fill-opacity:1"
         d="m 326.8724965013558,420.3419277281824 c -3.3595354082737,9.5228594597763 -4.5914456473914,16.9583018024307 -4.6286641306861,27.8108811213504 -0.036390043023,10.6110134901915 0.936712874,17.4841263128527 3.6951520371024,26.2161312948112 8.8520695411252,28.0217582347593 32.8828762056369,50.629155814073 61.7673835254602,58.0916796569737 12.1048779780913,3.127383809137 29.5233002363008,3.560245042959 41.3273583096989,1.0307529366654 36.2143642712354,-7.760377659015 63.1348983287425,-35.2245030236584 69.2160321055145,-70.6357484145059 1.2107877013884,-7.0505767483461 1.2208014182343,-20.7732260750977 0.019448168616,-28.1803963250605 -21.9040676384001,-88.0549186371628 -140.3353784154325,-97.0917788660244 -171.3967100157059,-14.3333002702343 z m 164.589850999991,15.4029495441325 c 1.5089713143627,8.6722016618415 0.9533975548115,23.6654473439236 -1.16689011698,31.7588593504649 -1.9359813507759,7.3898909649243 -4.5602733792513,13.7755666963027 -8.3821606736376,20.3622325412964 -3.7519999334725,6.4662215048884 -10.5527637533688,15.0528825090384 -11.9217273618097,15.0528825090384 -0.5790058025413,0 -1.6648802841376,-0.5477033482996 -2.3921247398084,-1.2252346228288 -1.1178213862939,-1.0414090374237 -1.2315279146027,-1.5500538779832 -0.7390304074205,-3.2672923275432 0.3204144113912,-1.1172197605266 0.5834450584898,-4.5534008044144 0.5834450584898,-7.6431302662172 0,-11.5256051672037 -5.1029194574897,-23.1357363278618 -16.1614281201691,-36.7181423476289 -9.9648437173454,-12.2391325468033 -10.9368633618162,-14.7731142991099 -11.3966268091688,-29.5612162968196 -0.5397816808738,-17.3618555351135 -2.808738731597,-24.9709511225773 -9.0822947438255,-30.6114174021018 -5.8080945830093,-5.221976432488 -15.7829805865771,-6.6682259494164 -25.4965490560071,-3.6951520371025 -3.8681609935044,1.1839447649556 -5.12537425113,1.9428784574728 -8.1682308188581,4.9398348285476 -5.9132630570121,5.8240639997652 -6.3727469196557,7.6869707004235 -6.8652035215642,27.1885397256278 -0.5268823675815,20.864849450165 -0.5737506431994,20.9713854511626 -11.0076634368421,34.8511181604613 -10.1220574980915,13.4648865981769 -15.6055559034702,25.9345552557231 -16.1030836143204,36.5625569986982 l -0.2722743606287,5.6788652359679 -3.014466135531,3.4617740137066 c -1.6612680563113,1.906053294196 -3.581918152896,3.554331888105 -4.2591489269761,3.6562556998695 -0.8463338868692,0.127373975131 -2.4675417447755,-1.1519002015742 -5.2121091891762,-4.0646672408127 -10.0816626211277,-10.699512829773 -16.8213078282644,-23.6040026816979 -19.9343728317371,-38.1767549938534 -1.7824705432403,-8.344028056394 -1.9231845648684,-22.5468647886356 -0.291722529245,-30.1446613553098 3.3382682011853,-15.5464743425126 10.0703469340973,-28.5050693435854 20.4011288785288,-39.2658524363678 46.1945806818762,-48.2543570251263 129.9090250040674,-17.6119576596566 140.8825334566866,40.8606022629068 z m -72.5611171075229,-23.6295248688396 c 1.3342184957053,-0.050454921966 2.6568789618282,0.2413172651164 3.6173593626373,0.9140639249675 3.3020938761815,2.3128765811823 4.9594201924168,9.5741041610439 3.0533624727635,13.3414436708017 -0.791079881638,1.5635762037735 -2.3058761859405,2.2838916075129 -3.1117069786125,1.478060814841 -0.2400245961073,-0.2400245961073 -0.4473078781756,-2.2080154102405 -0.4473078781756,-4.375837938674 0,-3.1117069786126 -0.2620384824095,-4.2100167115242 -1.244682791445,-5.1926610205599 -2.3097733142052,-2.3097733142051 -5.1071033540719,-0.9853861154475 -6.14562128276,2.8977771238331 -0.6066840750062,2.2684762899543 -2.7644727816996,2.4719264908342 -3.0728106413798,0.2917225292449 -0.3231113455986,-2.284664738995 1.6620142093925,-6.7564540915884 3.6173593626372,-8.1487826502419 1.0516451144628,-0.7488373722693 2.3998298786298,-1.1553315322459 3.7340483743351,-1.2057864542124 z m -19.584305796643,1.4391644776083 c 0.6216898955763,0.018543161903 1.2632822650433,0.2334597340982 1.8864723557838,0.641789564339 1.9242946929742,1.2608463083578 3.5368595050957,4.7898703553809 3.2672923275434,7.1180297135762 -0.2656786882944,2.2945758086765 -1.5491811511047,2.0411019702274 -2.8394326179841,-0.5445487212571 -1.3241659991357,-2.6536150658961 -3.4458975417151,-3.1952135267862 -4.5314232876046,-1.1668901169797 -0.458258549619,0.8562639324365 -0.6313260663974,2.7737645429604 -0.4278597095592,5.0176275030129 0.1810824805114,1.9970096140107 0.2280355875497,3.6173593626372 0.097240843081,3.6173593626372 -0.1307947444679,0 -0.721285915643,-0.7355631048445 -1.3224754659103,-1.6530943323881 -1.4879342213737,-2.2708746551459 -1.4766304007485,-8.1020175398354 0.019448168617,-10.3853220411194 1.1649670091377,-1.7779643865506 2.4830196157652,-2.6857458880096 3.8507373860331,-2.644950931821 z m 8.3821606736377,11.182696954389 c 1.0460659694995,-0.056360193955 2.0723574218755,0.135304110322 3.2283959903106,0.5445487212572 4.5692628681327,1.6175465557875 13.2076432876409,5.5790348402894 14.3527484388507,6.5734809923192 1.6308518682272,1.4162842278505 1.355174907699,3.9936634555098 -0.6223413957224,5.8344505848987 -0.9412913610302,0.8762087166573 -4.4893814415606,3.029260908093 -7.8959564582294,4.7842494796169 -7.223115613605,3.7211819175112 -9.5540131920965,4.0003446845302 -13.1275138160219,1.5753016579226 -4.2553717941243,-2.8877733015834 -8.0606529383352,-5.9325213060174 -8.5960905284173,-6.8846516901805 -1.0097082123688,-1.7954919227613 0.2618181078138,-1.6614401496039 2.2559875594939,0.2333780233959 5.9808926462094,5.6829193062054 11.2671009388018,5.9010811896783 20.6345069019251,0.8362712505023 6.275087024954,-3.3928414395936 7.2313876304576,-4.1794462508277 5.7566579104333,-4.7453531423843 -0.502346150808,-0.192768305154 -3.4528059535347,0.965865543495 -6.5540328237029,2.5866064259718 -9.033547175297,4.7210474543553 -13.2373338530406,4.4593729101532 -19.5648576280268,-1.2252346228288 l -2.3532284025758,-2.1198503791798 4.2202525897434,-3.5006703509391 c 3.628799054682,-3.0145593340896 5.9641265290408,-4.3685345236696 8.2654716619396,-4.4925269503721 z m 18.397967511047,15.0723306776549 c 0.8041811124601,-0.022139377631 1.4457357522002,1.4264742331403 2.7810881121352,5.5427280556537 2.277370379962,7.0200456546578 4.7576597352709,13.0612021757601 9.6462916336989,23.3961468454436 2.523963605899,5.3358536206514 5.1226880279313,11.7770870663795 5.7761060790498,14.313852101618 0.9862256904296,3.8288242022901 1.4773515958812,4.7642273011724 2.8977771238331,5.4649353811884 2.3884905809314,1.1782628628999 3.4281434997429,-0.021116936209 3.8896337232658,-4.4925269503719 0.5208461699688,-5.0465137971044 1.419716308992,-4.3381077819565 1.419716308992,1.1085456111307 0,3.5695022307047 0.2482050900886,4.8694334811798 1.0890974425144,5.7177615732007 1.0377440589716,1.0469204946555 1.0397207590343,1.0728188194752 -0.097240843081,0.6417895643388 -0.6562736537185,-0.2487974471621 -2.8356922609548,-0.6070603274192 -4.8425939854659,-0.8168230818858 -3.2494883760489,-0.339638769573 -3.8240295701934,-0.235561382367 -5.1926610205599,1.050201105282 -0.8452742401563,0.7940939173053 -1.53640532069,1.8405646376597 -1.53640532069,2.314332065343 0,0.4737674276833 -1.2272201362546,1.985786893114 -2.7421917749024,3.3645331706248 -3.4303367045556,3.1218828401544 -4.4948446035537,5.7346647079658 -5.3287982008742,13.0886174787893 -1.1630609478509,10.2560805631988 -1.9324754604916,14.0634383735294 -3.0144661355311,14.9945380031893 -0.5732303941272,0.4932894709675 -2.7305228737324,1.2452744805399 -4.7842494796166,1.6725425010039 -4.838054270474,1.006534104939 -22.5708869337698,1.3680606109913 -27.3830214117911,0.5639968898736 -2.5944612795433,-0.4335107840925 -4.0565947817661,-1.0372736187162 -4.8036976482331,-1.9837131988653 -1.433165849801,-1.8155530463755 -1.3636096193858,-2.4941539427117 0.291722529245,-3.2283959903107 0.7617473547659,-0.3378820002855 1.7955827584868,-1.3580024452735 2.2948838967267,-2.2559875594942 1.9934781442851,-3.5852385704587 -2.8692928478909,-10.7923404691874 -11.1632487857727,-16.5892878297282 -8.9747814404399,-6.2728010580529 -11.1600255122505,-9.5045526011686 -11.1826969543889,-16.4725988180305 -0.016684026244,-5.1278196262257 0.9280012183733,-5.5544245490573 1.3808199717593,-0.6223413957224 0.3540065834592,3.8558250809916 2.1187433649098,8.2460234933233 3.3061886647758,8.2460234933233 0.4436333899381,0 0.8972461424302,-1.5837165597595 1.1474419483632,-4.0257709035798 0.5799809802647,-5.6609465011094 2.3539315282791,-11.0776449426642 7.0207888704947,-21.4318818151945 4.4611497188525,-9.8978386365005 8.0876170022396,-20.143868849943 8.6933313714988,-24.5630369624233 0.216380017102,-1.5786643346818 0.6486797896643,-2.8783289552165 0.9724084308165,-2.8783289552165 0.3237286411521,0 1.7627426304106,0.9476428240562 3.1894996530779,2.1004022105636 3.7493402237778,3.0293084719414 4.9274777881754,3.5006703509391 8.6544350342664,3.5006703509391 2.7977098439803,0 4.338118947624,-0.511754296476 9.5296026220011,-3.1894996530779 3.4065750166689,-1.7570970082838 6.6458968211822,-3.5882584163169 7.1958223880416,-4.0646672408127 0.3362223920919,-0.2912745364801 0.6265553855313,-0.4593762542483 0.8946157563507,-0.466756046792 z m 20.4205770471454,53.3074301773574 c 0.5710089855151,-0.049789776813 1.3156271832269,0.11946172513 2.6255027632044,0.4862042154082 5.6942780672897,1.5942992988472 8.0194650582199,5.2149564842396 5.0759720088618,7.8959564582296 -3.369351937297,3.0688818708866 -6.3515799106974,3.4550609676405 -8.5377460225684,1.1279937797468 -2.0840822790821,-2.2184039273993 -2.4868539057998,-7.0550761567621 -0.7195822388041,-8.6544350342662 0.5881188809163,-0.5322402722725 0.9848445037912,-0.8059296423049 1.5558534893063,-0.8557194191184 z m -77.0925403951277,6.690170004017 c 2.1132743345783,0 2.8351131706257,0.423356386662 5.5816243928865,3.2672923275433 1.9535297212524,2.0228256636344 4.1269919350724,5.282143116729 5.7177615732007,8.5571941911848 1.4131866328576,2.9094460250022 3.8682950872781,7.0392756909574 5.4454872125721,9.179535586907 1.5771921252942,2.1402598959495 2.8588807866005,4.0306218854564 2.8588807866005,4.2008044211268 0,0.7717811829391 -2.6363934125135,0.093380608934 -8.168230818858,-2.1004022105634 -9.2878881841148,-3.6833348544117 -22.3329547001342,-11.5310406743324 -22.3070494029293,-13.4192363452668 0.00496434611,-0.3618432465251 1.9003202621703,-2.6916265364998 4.2202525897434,-5.1732128519432 3.8415287872288,-4.1092083400301 4.4401373048273,-4.5119751189883 6.6512736667842,-4.5119751189885 z m 71.1219526299146,0.7779267446532 c 0.6700572676709,-0.1195014227313 1.265011184827,0.6072943509343 1.5947498265389,2.2559875594942 0.1980754685156,0.9903773425769 1.2244118156951,2.6635762933033 2.2948838967269,3.7340483743352 1.5978517987253,1.5978517987255 2.4490835839515,1.9448168616329 4.725904973768,1.9448168616329 2.8667137850882,0 8.0009907886316,-2.1450099853094 9.5296026220009,-3.9868745663473 1.6163863371076,-1.9476263879426 8.1293344816256,-0.7946026815691 8.1293344816256,1.4391644776083 0,2.4632587314153 -14.3817540292481,12.0869796273388 -23.940695566701,16.0252909398547 -5.7233035293774,2.3580174589816 -8.1528072576917,2.6942695224271 -7.5069930859029,1.0113047680489 0.2283057810363,-0.5949553284662 0.6846014924725,-4.1656390864241 1.0113047680492,-7.934852795462 0.3267032755766,-3.7692137090377 1.0119379444538,-8.3024719461063 1.5169571520736,-10.0547031746419 0.7924638171721,-2.7495584860596 1.7834487305294,-4.2805377581542 2.6449509318208,-4.4341824445231 z"
         id="path3814"
         inkscape:connector-curvature="0"
         sodipodi:nodetypes="cssssscccssssssssssssscccssssccssssssssssssssssssssssssssssssscccssssssssssssssssssssssssssssssssssssssssssssssssssssssssssss" />
    </g>
  </g>
</svg>
