<?xml version="1.0" encoding="UTF-8" standalone="no"?>
<!-- Created with Inkscape (http://www.inkscape.org/) -->
<svg xmlns:rdf="http://www.w3.org/1999/02/22-rdf-syntax-ns#" xmlns="http://www.w3.org/2000/svg" version="1.1" xmlns:cc="http://creativecommons.org/ns#" xmlns:dc="http://purl.org/dc/elements/1.1/" viewBox="0 0 1624.186035 900">
<metadata>
<rdf:RDF>
<cc:Work rdf:about="">
<dc:format>image/svg+xml</dc:format>
<dc:type rdf:resource="http://purl.org/dc/dcmitype/StillImage"/>
<dc:title/>
</cc:Work>
</rdf:RDF>
</metadata>
<g transform="translate(290.7209262527732,-7.593488464074426)">
<g transform="matrix(1.46511628542632,0,0,1.46511628542632,199.0465049577965,-316.099962448614)">
<rect fill-rule="nonzero" height="614.2857056" width="1108.571411" y="220.9336243" x="-334.2857056" fill="#e7fffd"/>
<path d="M-284.342181,420.0722125c51.8314747-138.796681,169.0970174-147.1153745,342.2544968-98.626394,173.1574793,48.4889805,266.6977432-35.2088156,266.6977432-35.2088156s-103.9981326,122.7270933-279.5274034,98.70147808c-175.5292708-24.02561527-216.0897063-59.99263603-329.4248366,35.13373149z" fill="#f3f3f3"/>
<path d="M285.0829925,673.0345541c29.290036-78.4341909,95.5569517-83.1350958,193.4084759-55.7339078,97.8515241,27.401188,150.7112529-19.896549,150.7112529-19.896549s-58.76948443,69.35324532-157.9613112,55.77633786c-99.19182674-13.57690746-122.1125833-33.90191922-186.1584177,19.85411886z" fill="#f3f3f3"/>
<g transform="matrix(1.015794316801706,0,0,0.9672513983199607,731.4032948614509,62.03354279902783)">
<path fill="#ffe7fa" d="m-717.1428571,783.790754c-94.28571429-114.2857143-42.85714286-220,85.71428571-345.7142857s102.8571429-248.5714286,102.8571429-248.5714286,54.28571429,151.4285714-54.28571429,291.4285714-160,157.1428571-134.2857143,302.8571429z"/>
<path fill="#ffe7fa" d="m-762.5069438,746.6127233c40.6233748-86.57005274-18.883417-140.2322784-136.8536865-191.2028614-117.9702695-50.97058303-127.2683719-129.6214564-127.2683719-129.6214564s-4.358946395,101.2460168,102.7814216,164.6028916c107.140368,63.35687487,146.9626648,63.8493188,161.3406368,156.2214262z"/>
<path d="m-678.0305173,465.3487532c-19.47951737,22.72936546-82.51732968,12.47653265-82.51732968,12.47653265s-42.07203001,59.58462139-68.70189542,58.49602973c-26.62986541-1.088591656-36.57386469-62.79955558-36.57386469-62.79955558s-67.06056454,4.934593112-74.21091258-18.88336401c-7.150348039-23.81795712,45.94346499-75.27608823,45.94346499-75.27608823s-24.98853453-54.65002828-5.509017163-77.37939374,82.51732968-12.47653265,82.51732968-12.47653265,42.07203001-59.58462139,68.70189542-58.49602973c26.62986541,1.088591656,36.57386469,62.79955558,36.57386469,62.79955558s67.06056454-4.934593112,74.21091258,18.88336401c7.150348039,23.81795712-45.94346499,75.27608823-45.94346499,75.27608823s24.98853453,54.65002828,5.509017163,77.37939374z" fill-rule="nonzero" fill="#FFF"/>
<path d="m-815.8307935,170.7234932c-16.45251905,8.619279099-22.7847648,28.94947141-14.1654857,45.40199046,8.619279099,16.45251905,28.92607929,22.79701965,45.37859834,14.17774055,16.45251905-8.619279099,22.82041177-28.93833414,14.20113268-45.39085319-8.619279099-16.45251905-28.96172626-22.80815692-45.41424531-14.18887782zm32.81653354,66.90828607c-8.783568316,4.601606998-12.17494838,15.45637424-7.57334138,24.23994255,4.601606998,8.783568316,15.45637424,12.17494838,24.23994255,7.57334138,8.783568316-4.601606998,12.17494838-15.45637424,7.57334138-24.23994255-4.601606998-8.783568316-15.45637424-12.17494838-24.23994255-7.57334138zm-1.727235662,44.16251497c-7.011804459,3.673400981-9.720936819,12.34450261-6.047535838,19.35630707,3.673400981,7.011804459,12.33224775,9.697544698,19.34405221,6.024143717,7.011804459-3.673400981,9.733191673-12.32111049,6.059790691-19.33291495-3.673400981-7.011804459-12.34450261-9.720936819-19.35630707-6.047535838zm-4.148687838,30.43550173c-5.240040603,2.745194965-7.266925259,9.232630979-4.521730295,14.47267158,2.745194965,5.240040603,9.232630979,7.266925259,14.47267158,4.521730295,5.240040603-2.745194965,7.243533139-9.220376125,4.498338174-14.46041673-2.745194965-5.240040603-9.209238858-7.279180113-14.44927946-4.533985149zm1.428579322,26.17208461c-3.320629758,1.739638446-4.601915997,5.840642648-2.862277551,9.161272406s5.840642648,4.601915997,9.161272406,2.862277551,4.601915997-5.840642648,2.862277551-9.161272406-5.840642648-4.601915997-9.161272406-2.862277551zm7.232830541,17.67565685c-2.139453854,1.120834434-2.969620713,3.777943887-1.848786278,5.917397741,1.120834434,2.139453854,3.765689033,2.946228592,5.905142887,1.825394158s2.958483446-3.742296913,1.837649011-5.881750766c-1.120834434-2.139453854-3.754551766-2.981875566-5.89400562-1.861041132zm8.881146018,12.39990464c-1.548865901,0.8114324286-2.147904437,2.72877102-1.336472008,4.277636921,0.8114324286,1.548865901,2.716516166,2.124512316,4.265382067,1.313079888,1.548865901-0.8114324286,2.13676717-2.693124045,1.325334742-4.241989947-0.8114324286-1.548865901-2.705378899-2.160159291-4.2542448-1.348726862z" fill-rule="nonzero" fill="#fff9e7"/>
<path d="m-946.8856779,291.5958308c12.76000348-7.569935066,29.66319969-4.020033547,37.75852279,7.911843245,8.095323097,11.93187679,4.317184334,27.7272894-8.442819145,35.29722447-12.76000348,7.569935066-29.66983191,4.047761139-37.76515501-7.884115653-8.095323097-11.93187679-4.310552111-27.755017,8.449451368-35.32495206zm33.83007382,47.05017545c6.81223112-4.041389747,15.84148839-2.152898868,20.16336902,4.217217138,4.321880634,6.370116006,2.302319872,14.81337274-4.509911248,18.85476248-6.81223112,4.041389747-15.84148839,2.152898868-20.16336902-4.217217138-4.321880634-6.370116006-2.302319872-14.81337274,4.509911248-18.85476248zm31.83138454,15.63950707c5.438112488-3.226187084,12.65094402-1.717606018,16.1010432,3.367571921,3.450099187,5.085177938,1.825305816,11.81293062-3.612806671,15.0391177-5.438112488,3.226187084-12.63943412,1.734570708-16.08953331-3.35060723-3.450099187-5.085177938-1.836815712-11.82989531,3.601296776-15.05608239zm23.13916829,8.828331705c4.063993856-2.410984421,9.460399647-1.282313168,12.03871739,2.517926703,2.57831774,3.800239871,1.371311552,8.846417885-2.692682304,11.25740231-4.063993856,2.410984421-9.442257529,1.271550267-12.02057527-2.528689604-2.57831774-3.800239871-1.38945367-8.835654984,2.674540186-11.2466394zm17.86798812,10.88480067c2.575365337-1.527848202,5.986679572-0.8143636231,7.62056741,1.593860007s0.870884174,5.598142913-1.704481163,7.125991115-5.986679572,0.8143636231-7.62056741-1.593860007-0.870884174-5.598142913,1.704481163-7.125991115zm9.520788718,11.48270018c1.659286249-0.9843797598,3.869533996-0.5221011262,4.922234203,1.029497125,1.052700206,1.551598251,0.546827431,3.601435802-1.112458818,4.585815562-1.659286249,0.9843797598-3.839881983,0.5283029161-4.892582189-1.023295335s-0.5764794442-3.607637592,1.082806804-4.592017352zm5.132290754,10.56483527c1.201246704-0.7126455386,2.796135202-0.3790707725,3.558241592,0.7442147891,0.7621063903,1.123285562,0.3938701182,2.597700797-0.8073765863,3.310346335-1.201246704,0.7126455386-2.766483189,0.3852725624-3.528589579-0.7380129992-0.7621063903-1.123285562-0.4235221314-2.603902587,0.777724573-3.316548125z" fill-rule="nonzero" fill="#fff9e7"/>
<path d="m-586.6667936,249.0781165c-18.28007977-12.20352528-42.98750172-7.255854332-55.191027,11.02422544s-7.28184487,42.9701508,10.9982349,55.17367608,42.99614133,7.29919579,55.19966662-10.98088398c12.20352528-18.28007977,7.273205251-43.01349225-11.00687452-55.21701754zm-50.89623444,72.0179901c-9.759255044-6.51514201-22.95704945-3.884314168-29.47219146,5.874940876s-3.884314168,22.95704945,5.874940876,29.47219146,22.95704945,3.884314168,29.47219146-5.874940876,3.884314168-22.95704945-5.874940876-29.47219146zm-46.85229336,23.24160444c-7.790682052-5.200950246-18.33346147-3.099368971-23.53441171,4.691313081-5.200950246,7.790682052-3.082018051,18.30747093,4.708664001,23.50842117,7.790682052,5.200950246,18.31611055,3.125359509,23.51706079-4.665322543,5.200950246-7.790682052,3.099368971-18.33346147-4.691313081-23.53441171zm-33.96629467,12.94451071c-5.822109062-3.886758484-13.70987348-2.314423775-17.59663196,3.507685287-3.886758484,5.822109062-2.314423775,13.70987348,3.507685287,17.59663196,5.822109062,3.886758484,13.68388294,2.297072855,17.57064142-3.525036207,3.886758484-5.822109062,2.340414313-13.69252256-3.481694749-17.57928104zm-26.37598221,16.3208774c-3.68948832-2.463050739-8.675703976-1.469106254-11.13875472,2.220382066-2.463050739,3.68948832-1.469106254,8.675703976,2.220382066,11.13875472,3.68948832,2.463050739,8.675703976,1.469106254,11.13875472-2.220382066,2.463050739-3.68948832,1.469106254-8.675703976-2.220382066-11.13875472zm-14.26001869,17.53332518c-2.377106326-1.586922897-5.607759137-0.9429295832-7.194682034,1.434176743s-0.9255786637,5.581768598,1.451527663,7.168691495c2.377106326,1.586922897,5.564417679,0.9515692022,7.151340576-1.425537124s0.9689201217-5.590408217-1.408186205-7.177331114zm-7.845482904,16.25466158c-1.720915329-1.148858976-4.052115988-0.6841610568-5.200974964,1.036754272s-0.6668101373,4.02612545,1.054105192,5.174984426,4.00877453,0.6928006758,5.157633506-1.028114653,0.7101515953-4.034765069-1.010763734-5.183624045z" fill-rule="nonzero" fill="#fff9e7"/>
</g>
</g>
</g>
</svg>
