<?xml version="1.0" encoding="UTF-8" standalone="no"?>
<!-- Created with Inkscape (http://www.inkscape.org/) -->

<svg
   xmlns:dc="http://purl.org/dc/elements/1.1/"
   xmlns:cc="http://creativecommons.org/ns#"
   xmlns:rdf="http://www.w3.org/1999/02/22-rdf-syntax-ns#"
   xmlns:svg="http://www.w3.org/2000/svg"
   xmlns="http://www.w3.org/2000/svg"
   xmlns:sodipodi="http://sodipodi.sourceforge.net/DTD/sodipodi-0.dtd"
   xmlns:inkscape="http://www.inkscape.org/namespaces/inkscape"
   width="677.33331mm"
   height="381mm"
   viewBox="0 0 2399.9999 1350"
   id="svg2"
   version="1.1"
   inkscape:version="0.48.5 r10040"
   sodipodi:docname="thewebsiteof_text.svg">
  <defs
     id="defs4" />
  <sodipodi:namedview
     id="base"
     pagecolor="#ffffff"
     bordercolor="#666666"
     borderopacity="1.0"
     inkscape:pageopacity="0.0"
     inkscape:pageshadow="2"
     inkscape:zoom="0.3499999999999998"
     inkscape:cx="1659.019189765458"
     inkscape:cy="154.9443194507227"
     inkscape:document-units="px"
     inkscape:current-layer="layer1"
     showgrid="false"
     inkscape:window-width="708"
     inkscape:window-height="644"
     inkscape:window-x="556"
     inkscape:window-y="0"
     inkscape:window-maximized="0"
     fit-margin-top="0"
     fit-margin-left="0"
     fit-margin-right="0"
     fit-margin-bottom="0"
     showguides="true"
     inkscape:guide-bbox="true" />
  <metadata
     id="metadata7">
    <rdf:RDF>
      <cc:Work
         rdf:about="">
        <dc:format>image/svg+xml</dc:format>
        <dc:type
           rdf:resource="http://purl.org/dc/dcmitype/StillImage" />
        <dc:title />
      </cc:Work>
    </rdf:RDF>
  </metadata>
  <g
     inkscape:label="Layer 1"
     inkscape:groupmode="layer"
     id="layer1"
     transform="translate(831.42859,134.06636)">
    <g
       id="g4294"
       style="opacity:0.63999999"
       transform="translate(0,299.00515)">
      <text
         sodipodi:linespacing="125%"
         id="text4258"
         y="732.5683"
         x="786.44086"
         style="font-size:46.1642532349px;font-style:normal;font-weight:normal;line-height:125%;letter-spacing:0px;word-spacing:0px;fill:#000000;fill-opacity:1;stroke:none;font-family:sans-serif"
         xml:space="preserve"><tspan
           style="font-style:normal;font-variant:normal;font-weight:200;font-stretch:normal;letter-spacing:26px;font-family:Montserrat;-inkscape-font-specification:Montserrat Ultra-Light"
           y="732.5683"
           x="786.44086"
           id="tspan4260"
           sodipodi:role="line">the website of:</tspan></text>
      <text
         xml:space="preserve"
         style="font-size:122.9953613281px;font-style:normal;font-variant:normal;font-weight:normal;font-stretch:normal;line-height:125%;letter-spacing:0px;word-spacing:0px;fill:#000000;fill-opacity:1;stroke:none;font-family:Montserrat;-inkscape-font-specification:Montserrat"
         x="788.11792"
         y="842.91205"
         id="text2997"
         sodipodi:linespacing="125%"><tspan
           sodipodi:role="line"
           id="tspan2999"
           x="788.11792"
           y="842.91205">  osh Spann</tspan></text>
    </g>
    <g
       transform="matrix(1.997030529046187,0,0,1.997030529046184,709.1748929359721,-948.7562002498655)"
       id="g6"
       style="opacity:0.64">
      <g
         transform="translate(2.8571429,-2.8042318)"
         id="g8">
        <circle
           style="fill:#ffffff"
           sodipodi:ry="22.85714340209961"
           sodipodi:rx="22.85714340209961"
           sodipodi:cy="1027.041381835938"
           sodipodi:cx="34.99999618530273"
           d="m 57.85713958740235,1027.041381835937 c 0,12.623651725676 -10.23349167642446,22.8571434021 -22.85714340209961,22.8571434021 -12.62365172567516,0 -22.85714340209961,-10.233491676424 -22.85714340209961,-22.8571434021 0,-12.623651725675 10.23349167642445,-22.857143402099 22.85714340209959,-22.857143402099 12.62365172567515,0 22.85714340209962,10.233491676424 22.85714340209962,22.857143402099 z"
           transform="matrix(1.275050895444884,0,0,1.275050895444884,-9.617714546937691,-282.4793966691832)"
           cy="1027.041381835938"
           cx="34.99999618530273"
           r="22.85714340209961"
           id="circle10" />
        <path
           style="fill:#000000;opacity:1"
           inkscape:connector-curvature="0"
           d="m 32.96875,1.03125 c -17.63613891,0 -31.9375,14.30136109 -31.9375,31.9375 0,17.63613891 14.30136109,31.9375 31.9375,31.9375 17.63613891,0 31.9375,-14.30136109 31.9375,-31.9375 0,-17.63613891 -14.30136109,-31.9375 -31.9375,-31.9375 z m 2.9375,3.40625 c 2.0411248,0.256811008 6.49322197,8.46875 9.84375,8.46875 h -5.09375 l 1.53125,19.9375 c 2.80895703,-2.33457315 5.43829283,-4.50906349 7.46875,-6.46875 0.01934441,0.63835962 -3.18466157999999,4.76697838 -7.21875,9.78125 l 0.96875,12.5625 c -0.57534986999999,11.33433776 -15.0563756,16.7358076 -21.8125,11.0625 -0.55019283,-7.68710798 7.37345757,-15.63880498999999 15.5,-22.625 l -1.90625,-24.25 C 34.41818937,6.346796038 34.83708939,4.302979948000001 35.90625,4.4375 z M 37.5,42.3125 C 31.47162539,49.72739842 25.51309168,56.97734152000001 25.90625,57.40625 32.84676699,60.77204526 38.16907257,53.12681747 37.96875,48.5 L 37.5,42.3125 z"
           id="path12"
           transform="matrix(0.9125324219690234,0,0,0.9125324219690234,4.924142577775485,996.9655282642567)" />
      </g>
    </g>
  </g>
</svg>
