<?xml version="1.0" encoding="UTF-8" standalone="no"?>
<!-- Created with Inkscape (http://www.inkscape.org/) -->

<svg
   xmlns:dc="http://purl.org/dc/elements/1.1/"
   xmlns:cc="http://creativecommons.org/ns#"
   xmlns:rdf="http://www.w3.org/1999/02/22-rdf-syntax-ns#"
   xmlns:svg="http://www.w3.org/2000/svg"
   xmlns="http://www.w3.org/2000/svg"
   xmlns:sodipodi="http://sodipodi.sourceforge.net/DTD/sodipodi-0.dtd"
   xmlns:inkscape="http://www.inkscape.org/namespaces/inkscape"
   width="194.2857208251953"
   height="194.2857208251953"
   id="svg2"
   version="1.1"
   inkscape:version="0.48.5 r10040"
   sodipodi:docname="source.svg">
  <defs
     id="defs4" />
  <sodipodi:namedview
     id="base"
     pagecolor="#ffffff"
     bordercolor="#666666"
     borderopacity="1.0"
     inkscape:pageopacity="0.0"
     inkscape:pageshadow="2"
     inkscape:zoom="1.979898984710664"
     inkscape:cx="130.1055703270111"
     inkscape:cy="109.0875449308264"
     inkscape:document-units="px"
     inkscape:current-layer="layer1"
     showgrid="false"
     fit-margin-top="0"
     fit-margin-left="0"
     fit-margin-right="0"
     fit-margin-bottom="0"
     inkscape:window-width="1280"
     inkscape:window-height="660"
     inkscape:window-x="-8"
     inkscape:window-y="-8"
     inkscape:window-maximized="1" />
  <metadata
     id="metadata7">
    <rdf:RDF>
      <cc:Work
         rdf:about="">
        <dc:format>image/svg+xml</dc:format>
        <dc:type
           rdf:resource="http://purl.org/dc/dcmitype/StillImage" />
        <dc:title></dc:title>
      </cc:Work>
    </rdf:RDF>
  </metadata>
  <g
     inkscape:label="Layer 1"
     inkscape:groupmode="layer"
     id="layer1"
     transform="translate(-101.4285659790039,-366.6478805436464)">
    <path
       sodipodi:type="arc"
       style="fill:#789cc7;fill-opacity:1;fill-rule:nonzero;stroke:none"
       id="path2989"
       sodipodi:cx="198.5714263916016"
       sodipodi:cy="483.7907409667969"
       sodipodi:rx="97.14286041259766"
       sodipodi:ry="97.14286041259766"
       d="m 295.7142868041992,483.7907409667969 c 0,53.6505203608191 -43.4923400517785,97.1428604125977 -97.1428604125976,97.1428604125977 -53.6505203608192,0 -97.1428604125977,-43.4923400517786 -97.1428604125977,-97.1428604125977 0,-53.6505203608192 43.4923400517785,-97.1428604125977 97.1428604125976,-97.1428604125977 53.6505203608192,0 97.1428604125977,43.4923400517785 97.1428604125977,97.1428604125977 z"
       transform="translate(0,-20.00000001055287)" />
    <g
       id="g3792"
       transform="matrix(0.1230388284081429,0,0,0.1230388284081429,46.53971359215517,481.5530486128506)"
       style="fill:#ffffff;fill-opacity:1;stroke:none">
      <path
         style="fill:#ffffff;fill-opacity:1;stroke:none"
         d="m 890.09375,-948.0625 504.75,0.09375 c 277.6125,0.043421052632 504.3,0.2213933472747 503.75,0.40625 -0.55,0.1848566527254 -122.5,17.9993768233267 -271,39.59375 -148.5,21.5943731766738 -270.561174041409,39.697955840647 -271.25,40.21875 -0.99745638963,0.7541374645514 -1.201027324415,42.2874045319292 -1,204.0625 l 0.25,203.125 44.5,-0.125 c 78.076481090476,-0.2149213316382 504.450425589325,-3.5046163532817 505.75,-3.90625 0.995483505743,-0.307654311577 1.25,-49.5850922527528 1.25,-241.9375 l 0,-241.53125 -505,0 -512,0 z m 415.25,87.9375 c -0.586671871213,-0.5420099575076 -401.1482538988212,53.35116987878 -412.5,55.5 l -2.75,0.53125 0,347.28125 116.25,-0.71875 c 63.9375,-0.4013680077169 157.425,-1.0215891804397 207.75,-1.375 l 91.5,-0.65625 0.25,-199.9375 c 0.138855275554,-109.9711447244453 -0.08614472444,-200.2426505277915 -0.5,-200.625 z m -415.25,442.84375 0,420.71875 c 0,-48.474703696049907 0.3200154098142,-72.5 1,-72.5 0.5593512381979,0 92.6968512381977,12.61826807187069 204.75,28.03125 112.053148761802,15.4129819281294 205.1,28.12548192812932 206.75,28.25 l 3,0.21875 0.25,-199.9375 c 0.138855275554,-109.9711447244454 -0.08041302235,-200.2991630223487 -0.5,-200.71875 -0.419586977651,-0.4195869776513 -79.955731702097,-1.2221420765924 -176.75,-1.8125 -96.794268297903,-0.5903579234076 -190.0625,-1.3364880547845 -207.25,-1.65625 l -31.25,-0.59375 z m 464.5,6.71875 0.34375,201.5 c 0.196004917389,110.82500000000011 0.741213688318,201.897708770929284 1.1875,202.375 0.783122880446,0.837528896446484 547.441124165058,78.62510561277395 549.46875,78.1875 0.662440656434,-0.1429690549348 1.083031924741,-81.289811548741795 1.25,-240.40625 0.206853001819,-197.1257851621654 0.01123328251,-240.306719879487 -1.0625,-240.71875 -0.719587712634,-0.276131714259 -125.03096028918,-0.5992107192731 -276.25,-0.71875 l -274.9375,-0.21875 z"
         transform="translate(-211.7187229147958,293.9168973166994)"
         id="path3796"
         inkscape:connector-curvature="0" />
    </g>
  </g>
</svg>
